<?xml version="1.0" ?><!DOCTYPE svg  PUBLIC '-//W3C//DTD SVG 1.1//EN'  'http://www.w3.org/Graphics/SVG/1.1/DTD/svg11.dtd'><svg enable-background="new 0 0 64 64" height="64px" id="Layer_1" version="1.1" viewBox="0 0 64 64" width="64px" xml:space="preserve" xmlns="http://www.w3.org/2000/svg" xmlns:xlink="http://www.w3.org/1999/xlink"><path d="M52.463,26.08c-1.607,0-3.14,0.336-4.53,0.938l-4.783-11.084c-0.122-0.282-0.337-0.482-0.578-0.635  c-0.213-0.146-0.458-0.251-0.736-0.251h-8.876c-0.741,0-1.342,0.601-1.342,1.343c0,0.741,0.601,1.341,1.342,1.341h6.807  c0.331,0.017,1.019,0.138,1.314,0.822l0.54,1.244l0.102,0.234c0.099,0.291,0.138,0.748-0.604,0.748H22.454  c-0.855,0-1.259-0.45-1.431-0.73l-0.11-0.22v-0.003l-0.55-1.089v-0.001l-0.006-0.01l-0.1-0.2l-0.012-0.001l-0.225-0.405  c-0.049-0.127-0.03-0.335,0.649-0.335h2.593c0,0,1.524,0.127,1.566-1.271c0.021-0.72-0.486-1.46-1.163-1.46  c-0.678,0-9.125,0-9.125,0s-1.46-0.169-1.545,1.365c0,0.688,0.57,1.366,1.376,1.366c0.295,0,0.698-0.003,1.087-0.007  c0.512,0.014,1.386,0.121,1.674,0.677l0.116,0.219c0.286,0.562,0.749,1.468,1.309,2.567c0.042,0.078,0.084,0.165,0.126,0.245  c0.107,0.285,0.189,0.804-0.207,1.48l-2.396,4.07c-1.394-0.604-2.929-0.944-4.546-0.944c-6.312,0-11.432,5.117-11.432,11.431  c0,6.312,5.12,11.432,11.432,11.432c5.55,0,10.174-3.958,11.212-9.202l5.752,0.477c0.233,0.021,0.451-0.039,0.651-0.127  c0.254-0.042,0.505-0.127,0.713-0.309l13.938-12.244c0.19-0.164,0.87-0.677,1.147-0.04l0.445,1.032  c-2.651,2.094-4.36,5.329-4.36,8.972c0,6.312,5.116,11.431,11.43,11.431s11.434-5.119,11.434-11.431  C63.896,31.199,58.776,26.08,52.463,26.08z M25.625,37.271l-2.682-0.222c-0.143-3.511-1.865-6.608-4.481-8.606l1.082-1.836  c0.937-1.588,1.752,0.001,1.752,0.001c1.767,3.471,3.64,7.15,4.731,9.306C26.027,35.913,26.76,37.364,25.625,37.271z M43.219,24.294  L30.783,35.216c0,0.002,0,0.002,0,0.002c-1.459,1.282-2.172-0.104-2.183-0.127l-5.282-10.487c-0.47-0.934,0.408-1.059,0.802-1.071  h17.877c0,0,1.231-0.011,1.352,0.267v0.001C43.428,23.982,43.441,24.098,43.219,24.294z" fill="#241F20"/></svg>