<?xml version="1.0" ?><svg id="Layer_1" style="enable-background:new 0 0 91 91;" version="1.1" viewBox="0 0 91 91" xml:space="preserve" xmlns="http://www.w3.org/2000/svg" xmlns:xlink="http://www.w3.org/1999/xlink"><style type="text/css">
	.st0{fill:#000000;}
</style><g><path class="st0" d="M61.2,24c2.1,0,3.6-2.9,1.8-4.4c-5.9-5-10.5-9.9-14.4-16.7c0,0,0,0,0,0c-1.1-2.9-5.9-3.7-8-0.7   c-2.2,3.2-3.7,6.9-6,10.2c-1.9,2.8-4.4,5.5-6.8,7.9c-1.9,1.8,0.1,4.7,2.4,4.2c4.2-0.9,7.3-3.8,10.2-6.9c0.2-0.2,0.4-0.4,0.5-0.6   c-0.9,23-1.2,46.1-1.3,69.2c0,6.1,9.5,6.1,9.5,0c0.1-23-0.6-46.1-0.2-69.2C52.3,20.8,56.5,24,61.2,24z"/><path class="st0" d="M29.2,40.5c1.6-0.7,1.6-3.4-0.4-3.3c-3.4,0.2-6.8,0.7-10.2,0.4c-4.6-0.4-8.7-2.3-13.2-3.2   c-2.5-0.5-3.9,1.6-3.5,3.4c-0.1,0.3-0.1,0.7,0,1c1.5,8,1.4,15.2,1.1,23.3c-0.1,1.8,2.7,2.6,3.5,0.9c2.7-5.6,2.7-11.8,2-18   c10.7,10.6,16.3,26.5,15.2,41.5c-0.3,4.4,6.5,4.4,6.8,0C31.7,70,25.4,54,14,42.5C19.2,43,24.4,42.5,29.2,40.5z"/><path class="st0" d="M85.1,34.5c-3.9,1.1-7.6,2.8-11.7,3.5c-3.9,0.7-7.8,0.3-11.7,0.2c-2-0.1-2.1,2.6-0.4,3.3   c4.5,1.8,9.6,2.2,14.6,1.6c-11.6,11.6-19,27.5-15.7,44.4c0.8,4.3,7.4,2.5,6.6-1.8c-2.8-14.9,4.6-30.3,15.3-40.6   c-0.7,6.2-0.7,12.4,2,18c0.8,1.7,3.5,0.8,3.5-0.9c-0.2-8-0.3-15.3,1.1-23.3c0-0.2,0-0.3,0-0.5C89.3,36.5,87.5,33.8,85.1,34.5z"/></g></svg>