<?xml version="1.0" encoding="UTF-8" standalone="no"?>
<svg
   xmlns:dc="http://purl.org/dc/elements/1.1/"
   xmlns:cc="http://creativecommons.org/ns#"
   xmlns:rdf="http://www.w3.org/1999/02/22-rdf-syntax-ns#"
   xmlns:svg="http://www.w3.org/2000/svg"
   xmlns="http://www.w3.org/2000/svg"
   xmlns:sodipodi="http://sodipodi.sourceforge.net/DTD/sodipodi-0.dtd"
   xmlns:inkscape="http://www.inkscape.org/namespaces/inkscape"
   enable-background="new 0 0 800 800"
   id="Layer_1"
   version="1.1"
   viewBox="0 0 800 800"
   xml:space="preserve"
   inkscape:version="0.91 r13725"
   sodipodi:docname="blumenkuebel.svg"><metadata
     id="metadata11"><rdf:RDF><cc:Work
         rdf:about=""><dc:format>image/svg+xml</dc:format><dc:type
           rdf:resource="http://purl.org/dc/dcmitype/StillImage" /><dc:title></dc:title></cc:Work></rdf:RDF></metadata><defs
     id="defs9" /><sodipodi:namedview
     pagecolor="#ffffff"
     bordercolor="#666666"
     borderopacity="1"
     objecttolerance="10"
     gridtolerance="10"
     guidetolerance="10"
     inkscape:pageopacity="0"
     inkscape:pageshadow="2"
     inkscape:window-width="1957"
     inkscape:window-height="1256"
     id="namedview7"
     showgrid="false"
     inkscape:zoom="0.72913832"
     inkscape:cx="57.285027"
     inkscape:cy="354.23729"
     inkscape:window-x="0"
     inkscape:window-y="0"
     inkscape:window-maximized="0"
     inkscape:current-layer="Layer_1" /><g
     id="g3"><path
       d="m 293.3,248.5 c -24.5,18.1 -34.1,49.1 -24.5,77.9 9.6,28.8 36.3,48 66.1,48 11.7,0 23.5,-3.2 34.1,-8.5 l 0,135.5 -330.336731,3.47111 -0.18667,254.63001 L 775.41083,757.4 774.30859,502.12814 c 0,0 -302.4985,-0.72814 -341.30859,-0.72814 l 0,-136.6 c 9.6,5.3 21.3,8.5 34.1,8.5 29.9,0 56.5,-19.2 66.1,-48 9.6,-28.8 -1.1,-59.7 -24.5,-77.9 29.9,0 56.5,-19.2 66.1,-48 9.6,-28.8 -1.1,-59.7 -25.6,-77.9 -23.5,-17.1 -57.6,-17.1 -81.1,0 9.6,-28.8 -1.1,-59.7 -25.6,-76.8 -23.5,-17.1 -57.6,-17.1 -81.1,0 -24.5,18.1 -34.1,49.1 -25.6,76.8 -23.5,-17.1 -57.6,-17.1 -81.1,0 -24.5,18.1 -34.1,49.1 -25.6,77.9 7.7,28.9 34.4,48.1 64.2,49.1 z m 434.66636,301.7137 0.64372,162.28704 -640.662376,1.37149 2.015194,-160.91557 z M 345.78518,215.5863 c -0.18593,-30.44334 33.37186,-62.81556 58.32927,-60.0726 40.36354,-0.44146 62.19096,30.13415 62.90149,65.55666 0.1863,29.90075 -31.08556,53.21594 -66.55778,56.23076 -31.35779,-3.47111 -53.21557,-25.41407 -54.67298,-61.71482 z"
       id="path5"
       inkscape:connector-curvature="0"
       sodipodi:nodetypes="cssccccccccsscscccccccccccccccccc" /></g></svg>