<?xml version="1.0" encoding="UTF-8" standalone="no"?>
<svg
   xmlns:dc="http://purl.org/dc/elements/1.1/"
   xmlns:cc="http://creativecommons.org/ns#"
   xmlns:rdf="http://www.w3.org/1999/02/22-rdf-syntax-ns#"
   xmlns:svg="http://www.w3.org/2000/svg"
   xmlns="http://www.w3.org/2000/svg"
   xmlns:sodipodi="http://sodipodi.sourceforge.net/DTD/sodipodi-0.dtd"
   xmlns:inkscape="http://www.inkscape.org/namespaces/inkscape"
   height="24px"
   version="1.1"
   viewBox="0 0 24 24"
   width="24px"
   id="svg2"
   inkscape:version="0.91 r13725"
   sodipodi:docname="iconfinder_device-battery-charge-outline-stroke_763267.svg">
  <metadata
     id="metadata16">
    <rdf:RDF>
      <cc:Work
         rdf:about="">
        <dc:format>image/svg+xml</dc:format>
        <dc:type
           rdf:resource="http://purl.org/dc/dcmitype/StillImage" />
      </cc:Work>
    </rdf:RDF>
  </metadata>
  <sodipodi:namedview
     pagecolor="#ffffff"
     bordercolor="#666666"
     borderopacity="1"
     objecttolerance="10"
     gridtolerance="10"
     guidetolerance="10"
     inkscape:pageopacity="0"
     inkscape:pageshadow="2"
     inkscape:window-width="2066"
     inkscape:window-height="971"
     id="namedview14"
     showgrid="false"
     inkscape:zoom="13.906433"
     inkscape:cx="17.421007"
     inkscape:cy="17.718864"
     inkscape:window-x="0"
     inkscape:window-y="0"
     inkscape:window-maximized="0"
     inkscape:current-layer="Artboard-1" />
  <title
     id="title4" />
  <desc
     id="desc6" />
  <defs
     id="defs8" />
  <g
     style="fill:none;fill-rule:evenodd;stroke:none;stroke-width:1"
     transform="translate(-431,-551)"
     id="Artboard-1">
    <g
       transform="translate(215,119)"
       id="slice" />
    <path
       style="fill:#000000"
       inkscape:connector-curvature="0"
       id="device-battery-charge-outline-stroke"
       d="m 446.81818,554 -7.63636,0 c 0,0 -2.18182,0 -2.18182,2.10514 l 0,15.7896 c 0,2.08804 2.18182,2.10526 2.18182,2.10526 l 7.63636,0 c 0,0 2.18182,0 2.18182,-2.10526 l 0,-15.7896 C 449,554 446.81818,554 446.81818,554 Z m 0.0707,1.0001 -7.77778,0 c 0,0 -1.11111,-0.0327 -1.11111,1.05882 l 0,15.88226 C 438,573 439.11111,573 439.11111,573 l 7.77778,0 c 0,0 1.11111,0 1.11111,-1.05882 l 0,-15.88226 c 0,-1.05882 -1.11111,-1.05882 -1.11111,-1.05882 l 0,0 z M 442.9582,558 441,564.48023 l 1.9582,-0.61634 0,5.13611 2.0418,-6.67745 -2.0418,0.26297 0,-4.58552 z"
       sodipodi:nodetypes="ccssccssccccssccssccccccccccc" />
  </g>
</svg>
