<?xml version="1.0" ?><svg enable-background="new 0 0 80 80" id="Layer_1" version="1.1" viewBox="0 0 80 80" xml:space="preserve" xmlns="http://www.w3.org/2000/svg" xmlns:xlink="http://www.w3.org/1999/xlink"><g><g><path d="M23,10V9    c0-2.209,1.791-4,4-4h25c2.209,0,4,1.791,4,4v1" fill="none" stroke="#000000" stroke-linecap="round" stroke-miterlimit="10" stroke-width="4"/><line fill="none" stroke="#000000" stroke-linecap="round" stroke-miterlimit="10" stroke-width="4" x1="18" x2="18" y1="22" y2="30"/><line fill="none" stroke="#000000" stroke-linecap="round" stroke-miterlimit="10" stroke-width="4" x1="29" x2="29" y1="22" y2="30"/><line fill="none" stroke="#000000" stroke-linecap="round" stroke-miterlimit="10" stroke-width="4" x1="40" x2="40" y1="22" y2="30"/><line fill="none" stroke="#000000" stroke-linecap="round" stroke-miterlimit="10" stroke-width="4" x1="51" x2="51" y1="22" y2="24"/><line fill="none" stroke="#000000" stroke-linecap="round" stroke-miterlimit="10" stroke-width="4" x1="62" x2="62" y1="22" y2="30"/><path d="M66,30H14c-2.209,0-4-1.791-4-4v-6    c0-2.209,1.791-4,4-4h52c2.209,0,4,1.791,4,4v6C70,28.209,68.209,30,66,30z" fill="none" stroke="#000000" stroke-miterlimit="10" stroke-width="4"/><path d="M18,30v37    c0,4.418,3.582,8,8,8h28c4.418,0,8-3.582,8-8V30" fill="none" stroke="#000000" stroke-linecap="round" stroke-miterlimit="10" stroke-width="4"/></g><g><g><path d="M52.603,57.375     l3.148,5.453c0.557,0.966-0.139,2.172-1.254,2.172L38.003,65" fill="none" stroke="#000000" stroke-linecap="round" stroke-miterlimit="10" stroke-width="4"/><polyline fill="none" points="     42.003,61 38.003,65 42.003,69    " stroke="#000000" stroke-linecap="round" stroke-linejoin="round" stroke-miterlimit="10" stroke-width="4"/></g><g><path d="M35.608,43.166     l3.148-5.453c0.557-0.966,1.951-0.966,2.509,0l8.246,14.284" fill="none" stroke="#000000" stroke-linecap="round" stroke-miterlimit="10" stroke-width="4"/><polyline fill="none" points="     44.047,50.533 49.511,51.997 50.975,46.533    " stroke="#000000" stroke-linecap="round" stroke-linejoin="round" stroke-miterlimit="10" stroke-width="4"/></g><g><path d="M31.8,64.989l-6.297,0     c-1.115,0-1.812-1.207-1.254-2.172l8.247-14.283" fill="none" stroke="#000000" stroke-linecap="round" stroke-miterlimit="10" stroke-width="4"/><polyline fill="none" points="     33.96,53.997 32.496,48.533 27.032,49.997    " stroke="#000000" stroke-linecap="round" stroke-linejoin="round" stroke-miterlimit="10" stroke-width="4"/></g></g></g></svg>